<mxfile host="app.diagrams.net" modified="2024-10-10T22:16:57.436Z" agent="Mozilla/5.0 (Macintosh; Intel Mac OS X 10_15_7) AppleWebKit/537.36 (KHTML, like Gecko) Chrome/129.0.0.0 Safari/537.36" etag="-VB_9iC5aHOeAYtkguhZ" version="22.1.21" type="google">
  <diagram name="PÃ¡gina-1" id="zq-b5p_F7w8h50G7c4hj">
    <mxGraphModel dx="1139" dy="2034" grid="1" gridSize="10" guides="1" tooltips="1" connect="1" arrows="1" fold="1" page="1" pageScale="1" pageWidth="827" pageHeight="1169" math="1" shadow="0">
      <root>
        <mxCell id="0" />
        <mxCell id="1" parent="0" />
        <mxCell id="vRbigi4PN9UObd-Hf8e8-1" value="" style="shape=table;startSize=0;container=1;collapsible=0;childLayout=tableLayout;fontSize=16;strokeColor=#82b366;fillColor=#d5e8d4;" parent="1" vertex="1">
          <mxGeometry x="120" y="200" width="120" height="120" as="geometry" />
        </mxCell>
        <mxCell id="vRbigi4PN9UObd-Hf8e8-2" value="" style="shape=tableRow;horizontal=0;startSize=0;swimlaneHead=0;swimlaneBody=0;strokeColor=inherit;top=0;left=0;bottom=0;right=0;collapsible=0;dropTarget=0;fillColor=none;points=[[0,0.5],[1,0.5]];portConstraint=eastwest;fontSize=16;" parent="vRbigi4PN9UObd-Hf8e8-1" vertex="1">
          <mxGeometry width="120" height="41" as="geometry" />
        </mxCell>
        <mxCell id="vRbigi4PN9UObd-Hf8e8-3" value="" style="shape=partialRectangle;html=1;whiteSpace=wrap;connectable=0;strokeColor=inherit;overflow=hidden;fillColor=none;top=0;left=0;bottom=0;right=0;pointerEvents=1;fontSize=16;" parent="vRbigi4PN9UObd-Hf8e8-2" vertex="1">
          <mxGeometry width="41" height="41" as="geometry">
            <mxRectangle width="41" height="41" as="alternateBounds" />
          </mxGeometry>
        </mxCell>
        <mxCell id="vRbigi4PN9UObd-Hf8e8-4" value="" style="shape=partialRectangle;html=1;whiteSpace=wrap;connectable=0;strokeColor=inherit;overflow=hidden;fillColor=none;top=0;left=0;bottom=0;right=0;pointerEvents=1;fontSize=16;" parent="vRbigi4PN9UObd-Hf8e8-2" vertex="1">
          <mxGeometry x="41" width="38" height="41" as="geometry">
            <mxRectangle width="38" height="41" as="alternateBounds" />
          </mxGeometry>
        </mxCell>
        <mxCell id="vRbigi4PN9UObd-Hf8e8-5" value="" style="shape=partialRectangle;html=1;whiteSpace=wrap;connectable=0;strokeColor=inherit;overflow=hidden;fillColor=none;top=0;left=0;bottom=0;right=0;pointerEvents=1;fontSize=16;" parent="vRbigi4PN9UObd-Hf8e8-2" vertex="1">
          <mxGeometry x="79" width="41" height="41" as="geometry">
            <mxRectangle width="41" height="41" as="alternateBounds" />
          </mxGeometry>
        </mxCell>
        <mxCell id="vRbigi4PN9UObd-Hf8e8-6" value="" style="shape=tableRow;horizontal=0;startSize=0;swimlaneHead=0;swimlaneBody=0;strokeColor=inherit;top=0;left=0;bottom=0;right=0;collapsible=0;dropTarget=0;fillColor=none;points=[[0,0.5],[1,0.5]];portConstraint=eastwest;fontSize=16;" parent="vRbigi4PN9UObd-Hf8e8-1" vertex="1">
          <mxGeometry y="41" width="120" height="38" as="geometry" />
        </mxCell>
        <mxCell id="vRbigi4PN9UObd-Hf8e8-7" value="" style="shape=partialRectangle;html=1;whiteSpace=wrap;connectable=0;strokeColor=inherit;overflow=hidden;fillColor=none;top=0;left=0;bottom=0;right=0;pointerEvents=1;fontSize=16;" parent="vRbigi4PN9UObd-Hf8e8-6" vertex="1">
          <mxGeometry width="41" height="38" as="geometry">
            <mxRectangle width="41" height="38" as="alternateBounds" />
          </mxGeometry>
        </mxCell>
        <mxCell id="vRbigi4PN9UObd-Hf8e8-8" value="" style="shape=partialRectangle;html=1;whiteSpace=wrap;connectable=0;strokeColor=inherit;overflow=hidden;fillColor=none;top=0;left=0;bottom=0;right=0;pointerEvents=1;fontSize=16;" parent="vRbigi4PN9UObd-Hf8e8-6" vertex="1">
          <mxGeometry x="41" width="38" height="38" as="geometry">
            <mxRectangle width="38" height="38" as="alternateBounds" />
          </mxGeometry>
        </mxCell>
        <mxCell id="vRbigi4PN9UObd-Hf8e8-9" value="" style="shape=partialRectangle;html=1;whiteSpace=wrap;connectable=0;strokeColor=inherit;overflow=hidden;fillColor=none;top=0;left=0;bottom=0;right=0;pointerEvents=1;fontSize=16;" parent="vRbigi4PN9UObd-Hf8e8-6" vertex="1">
          <mxGeometry x="79" width="41" height="38" as="geometry">
            <mxRectangle width="41" height="38" as="alternateBounds" />
          </mxGeometry>
        </mxCell>
        <mxCell id="vRbigi4PN9UObd-Hf8e8-10" value="" style="shape=tableRow;horizontal=0;startSize=0;swimlaneHead=0;swimlaneBody=0;strokeColor=inherit;top=0;left=0;bottom=0;right=0;collapsible=0;dropTarget=0;fillColor=none;points=[[0,0.5],[1,0.5]];portConstraint=eastwest;fontSize=16;" parent="vRbigi4PN9UObd-Hf8e8-1" vertex="1">
          <mxGeometry y="79" width="120" height="41" as="geometry" />
        </mxCell>
        <mxCell id="vRbigi4PN9UObd-Hf8e8-11" value="" style="shape=partialRectangle;html=1;whiteSpace=wrap;connectable=0;strokeColor=inherit;overflow=hidden;fillColor=none;top=0;left=0;bottom=0;right=0;pointerEvents=1;fontSize=16;" parent="vRbigi4PN9UObd-Hf8e8-10" vertex="1">
          <mxGeometry width="41" height="41" as="geometry">
            <mxRectangle width="41" height="41" as="alternateBounds" />
          </mxGeometry>
        </mxCell>
        <mxCell id="vRbigi4PN9UObd-Hf8e8-12" value="" style="shape=partialRectangle;html=1;whiteSpace=wrap;connectable=0;strokeColor=inherit;overflow=hidden;fillColor=none;top=0;left=0;bottom=0;right=0;pointerEvents=1;fontSize=16;" parent="vRbigi4PN9UObd-Hf8e8-10" vertex="1">
          <mxGeometry x="41" width="38" height="41" as="geometry">
            <mxRectangle width="38" height="41" as="alternateBounds" />
          </mxGeometry>
        </mxCell>
        <mxCell id="vRbigi4PN9UObd-Hf8e8-13" value="" style="shape=partialRectangle;html=1;whiteSpace=wrap;connectable=0;strokeColor=inherit;overflow=hidden;fillColor=none;top=0;left=0;bottom=0;right=0;pointerEvents=1;fontSize=16;" parent="vRbigi4PN9UObd-Hf8e8-10" vertex="1">
          <mxGeometry x="79" width="41" height="41" as="geometry">
            <mxRectangle width="41" height="41" as="alternateBounds" />
          </mxGeometry>
        </mxCell>
        <mxCell id="vRbigi4PN9UObd-Hf8e8-48" value="" style="shape=table;startSize=0;container=1;collapsible=0;childLayout=tableLayout;fontSize=16;strokeColor=#82b366;fillColor=#d5e8d4;" parent="1" vertex="1">
          <mxGeometry x="240" y="200" width="120" height="120" as="geometry" />
        </mxCell>
        <mxCell id="vRbigi4PN9UObd-Hf8e8-49" value="" style="shape=tableRow;horizontal=0;startSize=0;swimlaneHead=0;swimlaneBody=0;strokeColor=inherit;top=0;left=0;bottom=0;right=0;collapsible=0;dropTarget=0;fillColor=none;points=[[0,0.5],[1,0.5]];portConstraint=eastwest;fontSize=16;" parent="vRbigi4PN9UObd-Hf8e8-48" vertex="1">
          <mxGeometry width="120" height="41" as="geometry" />
        </mxCell>
        <mxCell id="vRbigi4PN9UObd-Hf8e8-50" value="" style="shape=partialRectangle;html=1;whiteSpace=wrap;connectable=0;strokeColor=inherit;overflow=hidden;fillColor=none;top=0;left=0;bottom=0;right=0;pointerEvents=1;fontSize=16;" parent="vRbigi4PN9UObd-Hf8e8-49" vertex="1">
          <mxGeometry width="41" height="41" as="geometry">
            <mxRectangle width="41" height="41" as="alternateBounds" />
          </mxGeometry>
        </mxCell>
        <mxCell id="vRbigi4PN9UObd-Hf8e8-51" value="" style="shape=partialRectangle;html=1;whiteSpace=wrap;connectable=0;strokeColor=inherit;overflow=hidden;fillColor=none;top=0;left=0;bottom=0;right=0;pointerEvents=1;fontSize=16;" parent="vRbigi4PN9UObd-Hf8e8-49" vertex="1">
          <mxGeometry x="41" width="38" height="41" as="geometry">
            <mxRectangle width="38" height="41" as="alternateBounds" />
          </mxGeometry>
        </mxCell>
        <mxCell id="vRbigi4PN9UObd-Hf8e8-52" value="" style="shape=partialRectangle;html=1;whiteSpace=wrap;connectable=0;strokeColor=inherit;overflow=hidden;fillColor=none;top=0;left=0;bottom=0;right=0;pointerEvents=1;fontSize=16;" parent="vRbigi4PN9UObd-Hf8e8-49" vertex="1">
          <mxGeometry x="79" width="41" height="41" as="geometry">
            <mxRectangle width="41" height="41" as="alternateBounds" />
          </mxGeometry>
        </mxCell>
        <mxCell id="vRbigi4PN9UObd-Hf8e8-53" value="" style="shape=tableRow;horizontal=0;startSize=0;swimlaneHead=0;swimlaneBody=0;strokeColor=inherit;top=0;left=0;bottom=0;right=0;collapsible=0;dropTarget=0;fillColor=none;points=[[0,0.5],[1,0.5]];portConstraint=eastwest;fontSize=16;" parent="vRbigi4PN9UObd-Hf8e8-48" vertex="1">
          <mxGeometry y="41" width="120" height="38" as="geometry" />
        </mxCell>
        <mxCell id="vRbigi4PN9UObd-Hf8e8-54" value="" style="shape=partialRectangle;html=1;whiteSpace=wrap;connectable=0;strokeColor=inherit;overflow=hidden;fillColor=none;top=0;left=0;bottom=0;right=0;pointerEvents=1;fontSize=16;" parent="vRbigi4PN9UObd-Hf8e8-53" vertex="1">
          <mxGeometry width="41" height="38" as="geometry">
            <mxRectangle width="41" height="38" as="alternateBounds" />
          </mxGeometry>
        </mxCell>
        <mxCell id="vRbigi4PN9UObd-Hf8e8-55" value="" style="shape=partialRectangle;html=1;whiteSpace=wrap;connectable=0;strokeColor=inherit;overflow=hidden;fillColor=none;top=0;left=0;bottom=0;right=0;pointerEvents=1;fontSize=16;" parent="vRbigi4PN9UObd-Hf8e8-53" vertex="1">
          <mxGeometry x="41" width="38" height="38" as="geometry">
            <mxRectangle width="38" height="38" as="alternateBounds" />
          </mxGeometry>
        </mxCell>
        <mxCell id="vRbigi4PN9UObd-Hf8e8-56" value="" style="shape=partialRectangle;html=1;whiteSpace=wrap;connectable=0;strokeColor=inherit;overflow=hidden;fillColor=none;top=0;left=0;bottom=0;right=0;pointerEvents=1;fontSize=16;" parent="vRbigi4PN9UObd-Hf8e8-53" vertex="1">
          <mxGeometry x="79" width="41" height="38" as="geometry">
            <mxRectangle width="41" height="38" as="alternateBounds" />
          </mxGeometry>
        </mxCell>
        <mxCell id="vRbigi4PN9UObd-Hf8e8-57" value="" style="shape=tableRow;horizontal=0;startSize=0;swimlaneHead=0;swimlaneBody=0;strokeColor=inherit;top=0;left=0;bottom=0;right=0;collapsible=0;dropTarget=0;fillColor=none;points=[[0,0.5],[1,0.5]];portConstraint=eastwest;fontSize=16;" parent="vRbigi4PN9UObd-Hf8e8-48" vertex="1">
          <mxGeometry y="79" width="120" height="41" as="geometry" />
        </mxCell>
        <mxCell id="vRbigi4PN9UObd-Hf8e8-58" value="" style="shape=partialRectangle;html=1;whiteSpace=wrap;connectable=0;strokeColor=inherit;overflow=hidden;fillColor=none;top=0;left=0;bottom=0;right=0;pointerEvents=1;fontSize=16;" parent="vRbigi4PN9UObd-Hf8e8-57" vertex="1">
          <mxGeometry width="41" height="41" as="geometry">
            <mxRectangle width="41" height="41" as="alternateBounds" />
          </mxGeometry>
        </mxCell>
        <mxCell id="vRbigi4PN9UObd-Hf8e8-59" value="" style="shape=partialRectangle;html=1;whiteSpace=wrap;connectable=0;strokeColor=inherit;overflow=hidden;fillColor=none;top=0;left=0;bottom=0;right=0;pointerEvents=1;fontSize=16;" parent="vRbigi4PN9UObd-Hf8e8-57" vertex="1">
          <mxGeometry x="41" width="38" height="41" as="geometry">
            <mxRectangle width="38" height="41" as="alternateBounds" />
          </mxGeometry>
        </mxCell>
        <mxCell id="vRbigi4PN9UObd-Hf8e8-60" value="" style="shape=partialRectangle;html=1;whiteSpace=wrap;connectable=0;strokeColor=inherit;overflow=hidden;fillColor=none;top=0;left=0;bottom=0;right=0;pointerEvents=1;fontSize=16;" parent="vRbigi4PN9UObd-Hf8e8-57" vertex="1">
          <mxGeometry x="79" width="41" height="41" as="geometry">
            <mxRectangle width="41" height="41" as="alternateBounds" />
          </mxGeometry>
        </mxCell>
        <mxCell id="vRbigi4PN9UObd-Hf8e8-61" value="" style="shape=table;startSize=0;container=1;collapsible=0;childLayout=tableLayout;fontSize=16;strokeColor=#82b366;fillColor=#d5e8d4;" parent="1" vertex="1">
          <mxGeometry x="120" y="320" width="120" height="120" as="geometry" />
        </mxCell>
        <mxCell id="vRbigi4PN9UObd-Hf8e8-62" value="" style="shape=tableRow;horizontal=0;startSize=0;swimlaneHead=0;swimlaneBody=0;strokeColor=inherit;top=0;left=0;bottom=0;right=0;collapsible=0;dropTarget=0;fillColor=none;points=[[0,0.5],[1,0.5]];portConstraint=eastwest;fontSize=16;" parent="vRbigi4PN9UObd-Hf8e8-61" vertex="1">
          <mxGeometry width="120" height="41" as="geometry" />
        </mxCell>
        <mxCell id="vRbigi4PN9UObd-Hf8e8-63" value="" style="shape=partialRectangle;html=1;whiteSpace=wrap;connectable=0;strokeColor=inherit;overflow=hidden;fillColor=none;top=0;left=0;bottom=0;right=0;pointerEvents=1;fontSize=16;" parent="vRbigi4PN9UObd-Hf8e8-62" vertex="1">
          <mxGeometry width="41" height="41" as="geometry">
            <mxRectangle width="41" height="41" as="alternateBounds" />
          </mxGeometry>
        </mxCell>
        <mxCell id="vRbigi4PN9UObd-Hf8e8-64" value="" style="shape=partialRectangle;html=1;whiteSpace=wrap;connectable=0;strokeColor=inherit;overflow=hidden;fillColor=none;top=0;left=0;bottom=0;right=0;pointerEvents=1;fontSize=16;" parent="vRbigi4PN9UObd-Hf8e8-62" vertex="1">
          <mxGeometry x="41" width="38" height="41" as="geometry">
            <mxRectangle width="38" height="41" as="alternateBounds" />
          </mxGeometry>
        </mxCell>
        <mxCell id="vRbigi4PN9UObd-Hf8e8-65" value="" style="shape=partialRectangle;html=1;whiteSpace=wrap;connectable=0;strokeColor=inherit;overflow=hidden;fillColor=none;top=0;left=0;bottom=0;right=0;pointerEvents=1;fontSize=16;" parent="vRbigi4PN9UObd-Hf8e8-62" vertex="1">
          <mxGeometry x="79" width="41" height="41" as="geometry">
            <mxRectangle width="41" height="41" as="alternateBounds" />
          </mxGeometry>
        </mxCell>
        <mxCell id="vRbigi4PN9UObd-Hf8e8-66" value="" style="shape=tableRow;horizontal=0;startSize=0;swimlaneHead=0;swimlaneBody=0;strokeColor=inherit;top=0;left=0;bottom=0;right=0;collapsible=0;dropTarget=0;fillColor=none;points=[[0,0.5],[1,0.5]];portConstraint=eastwest;fontSize=16;" parent="vRbigi4PN9UObd-Hf8e8-61" vertex="1">
          <mxGeometry y="41" width="120" height="38" as="geometry" />
        </mxCell>
        <mxCell id="vRbigi4PN9UObd-Hf8e8-67" value="" style="shape=partialRectangle;html=1;whiteSpace=wrap;connectable=0;strokeColor=inherit;overflow=hidden;fillColor=none;top=0;left=0;bottom=0;right=0;pointerEvents=1;fontSize=16;" parent="vRbigi4PN9UObd-Hf8e8-66" vertex="1">
          <mxGeometry width="41" height="38" as="geometry">
            <mxRectangle width="41" height="38" as="alternateBounds" />
          </mxGeometry>
        </mxCell>
        <mxCell id="vRbigi4PN9UObd-Hf8e8-68" value="" style="shape=partialRectangle;html=1;whiteSpace=wrap;connectable=0;strokeColor=inherit;overflow=hidden;fillColor=none;top=0;left=0;bottom=0;right=0;pointerEvents=1;fontSize=16;" parent="vRbigi4PN9UObd-Hf8e8-66" vertex="1">
          <mxGeometry x="41" width="38" height="38" as="geometry">
            <mxRectangle width="38" height="38" as="alternateBounds" />
          </mxGeometry>
        </mxCell>
        <mxCell id="vRbigi4PN9UObd-Hf8e8-69" value="" style="shape=partialRectangle;html=1;whiteSpace=wrap;connectable=0;strokeColor=inherit;overflow=hidden;fillColor=none;top=0;left=0;bottom=0;right=0;pointerEvents=1;fontSize=16;" parent="vRbigi4PN9UObd-Hf8e8-66" vertex="1">
          <mxGeometry x="79" width="41" height="38" as="geometry">
            <mxRectangle width="41" height="38" as="alternateBounds" />
          </mxGeometry>
        </mxCell>
        <mxCell id="vRbigi4PN9UObd-Hf8e8-70" value="" style="shape=tableRow;horizontal=0;startSize=0;swimlaneHead=0;swimlaneBody=0;strokeColor=inherit;top=0;left=0;bottom=0;right=0;collapsible=0;dropTarget=0;fillColor=none;points=[[0,0.5],[1,0.5]];portConstraint=eastwest;fontSize=16;" parent="vRbigi4PN9UObd-Hf8e8-61" vertex="1">
          <mxGeometry y="79" width="120" height="41" as="geometry" />
        </mxCell>
        <mxCell id="vRbigi4PN9UObd-Hf8e8-71" value="" style="shape=partialRectangle;html=1;whiteSpace=wrap;connectable=0;strokeColor=inherit;overflow=hidden;fillColor=none;top=0;left=0;bottom=0;right=0;pointerEvents=1;fontSize=16;" parent="vRbigi4PN9UObd-Hf8e8-70" vertex="1">
          <mxGeometry width="41" height="41" as="geometry">
            <mxRectangle width="41" height="41" as="alternateBounds" />
          </mxGeometry>
        </mxCell>
        <mxCell id="vRbigi4PN9UObd-Hf8e8-72" value="" style="shape=partialRectangle;html=1;whiteSpace=wrap;connectable=0;strokeColor=inherit;overflow=hidden;fillColor=none;top=0;left=0;bottom=0;right=0;pointerEvents=1;fontSize=16;" parent="vRbigi4PN9UObd-Hf8e8-70" vertex="1">
          <mxGeometry x="41" width="38" height="41" as="geometry">
            <mxRectangle width="38" height="41" as="alternateBounds" />
          </mxGeometry>
        </mxCell>
        <mxCell id="vRbigi4PN9UObd-Hf8e8-73" value="" style="shape=partialRectangle;html=1;whiteSpace=wrap;connectable=0;strokeColor=inherit;overflow=hidden;fillColor=none;top=0;left=0;bottom=0;right=0;pointerEvents=1;fontSize=16;" parent="vRbigi4PN9UObd-Hf8e8-70" vertex="1">
          <mxGeometry x="79" width="41" height="41" as="geometry">
            <mxRectangle width="41" height="41" as="alternateBounds" />
          </mxGeometry>
        </mxCell>
        <mxCell id="vRbigi4PN9UObd-Hf8e8-74" value="" style="shape=table;startSize=0;container=1;collapsible=0;childLayout=tableLayout;fontSize=16;strokeColor=#82b366;fillColor=#d5e8d4;" parent="1" vertex="1">
          <mxGeometry x="240" y="320" width="120" height="120" as="geometry" />
        </mxCell>
        <mxCell id="vRbigi4PN9UObd-Hf8e8-75" value="" style="shape=tableRow;horizontal=0;startSize=0;swimlaneHead=0;swimlaneBody=0;strokeColor=inherit;top=0;left=0;bottom=0;right=0;collapsible=0;dropTarget=0;fillColor=none;points=[[0,0.5],[1,0.5]];portConstraint=eastwest;fontSize=16;" parent="vRbigi4PN9UObd-Hf8e8-74" vertex="1">
          <mxGeometry width="120" height="41" as="geometry" />
        </mxCell>
        <mxCell id="vRbigi4PN9UObd-Hf8e8-76" value="" style="shape=partialRectangle;html=1;whiteSpace=wrap;connectable=0;strokeColor=inherit;overflow=hidden;fillColor=none;top=0;left=0;bottom=0;right=0;pointerEvents=1;fontSize=16;" parent="vRbigi4PN9UObd-Hf8e8-75" vertex="1">
          <mxGeometry width="41" height="41" as="geometry">
            <mxRectangle width="41" height="41" as="alternateBounds" />
          </mxGeometry>
        </mxCell>
        <mxCell id="vRbigi4PN9UObd-Hf8e8-77" value="" style="shape=partialRectangle;html=1;whiteSpace=wrap;connectable=0;strokeColor=inherit;overflow=hidden;fillColor=none;top=0;left=0;bottom=0;right=0;pointerEvents=1;fontSize=16;" parent="vRbigi4PN9UObd-Hf8e8-75" vertex="1">
          <mxGeometry x="41" width="38" height="41" as="geometry">
            <mxRectangle width="38" height="41" as="alternateBounds" />
          </mxGeometry>
        </mxCell>
        <mxCell id="vRbigi4PN9UObd-Hf8e8-78" value="" style="shape=partialRectangle;html=1;whiteSpace=wrap;connectable=0;strokeColor=inherit;overflow=hidden;fillColor=none;top=0;left=0;bottom=0;right=0;pointerEvents=1;fontSize=16;" parent="vRbigi4PN9UObd-Hf8e8-75" vertex="1">
          <mxGeometry x="79" width="41" height="41" as="geometry">
            <mxRectangle width="41" height="41" as="alternateBounds" />
          </mxGeometry>
        </mxCell>
        <mxCell id="vRbigi4PN9UObd-Hf8e8-79" value="" style="shape=tableRow;horizontal=0;startSize=0;swimlaneHead=0;swimlaneBody=0;strokeColor=inherit;top=0;left=0;bottom=0;right=0;collapsible=0;dropTarget=0;fillColor=none;points=[[0,0.5],[1,0.5]];portConstraint=eastwest;fontSize=16;" parent="vRbigi4PN9UObd-Hf8e8-74" vertex="1">
          <mxGeometry y="41" width="120" height="38" as="geometry" />
        </mxCell>
        <mxCell id="vRbigi4PN9UObd-Hf8e8-80" value="" style="shape=partialRectangle;html=1;whiteSpace=wrap;connectable=0;strokeColor=inherit;overflow=hidden;fillColor=none;top=0;left=0;bottom=0;right=0;pointerEvents=1;fontSize=16;" parent="vRbigi4PN9UObd-Hf8e8-79" vertex="1">
          <mxGeometry width="41" height="38" as="geometry">
            <mxRectangle width="41" height="38" as="alternateBounds" />
          </mxGeometry>
        </mxCell>
        <mxCell id="vRbigi4PN9UObd-Hf8e8-81" value="" style="shape=partialRectangle;html=1;whiteSpace=wrap;connectable=0;strokeColor=inherit;overflow=hidden;fillColor=none;top=0;left=0;bottom=0;right=0;pointerEvents=1;fontSize=16;" parent="vRbigi4PN9UObd-Hf8e8-79" vertex="1">
          <mxGeometry x="41" width="38" height="38" as="geometry">
            <mxRectangle width="38" height="38" as="alternateBounds" />
          </mxGeometry>
        </mxCell>
        <mxCell id="vRbigi4PN9UObd-Hf8e8-82" value="" style="shape=partialRectangle;html=1;whiteSpace=wrap;connectable=0;strokeColor=inherit;overflow=hidden;fillColor=none;top=0;left=0;bottom=0;right=0;pointerEvents=1;fontSize=16;" parent="vRbigi4PN9UObd-Hf8e8-79" vertex="1">
          <mxGeometry x="79" width="41" height="38" as="geometry">
            <mxRectangle width="41" height="38" as="alternateBounds" />
          </mxGeometry>
        </mxCell>
        <mxCell id="vRbigi4PN9UObd-Hf8e8-83" value="" style="shape=tableRow;horizontal=0;startSize=0;swimlaneHead=0;swimlaneBody=0;strokeColor=inherit;top=0;left=0;bottom=0;right=0;collapsible=0;dropTarget=0;fillColor=none;points=[[0,0.5],[1,0.5]];portConstraint=eastwest;fontSize=16;" parent="vRbigi4PN9UObd-Hf8e8-74" vertex="1">
          <mxGeometry y="79" width="120" height="41" as="geometry" />
        </mxCell>
        <mxCell id="vRbigi4PN9UObd-Hf8e8-84" value="" style="shape=partialRectangle;html=1;whiteSpace=wrap;connectable=0;strokeColor=inherit;overflow=hidden;fillColor=none;top=0;left=0;bottom=0;right=0;pointerEvents=1;fontSize=16;" parent="vRbigi4PN9UObd-Hf8e8-83" vertex="1">
          <mxGeometry width="41" height="41" as="geometry">
            <mxRectangle width="41" height="41" as="alternateBounds" />
          </mxGeometry>
        </mxCell>
        <mxCell id="vRbigi4PN9UObd-Hf8e8-85" value="" style="shape=partialRectangle;html=1;whiteSpace=wrap;connectable=0;strokeColor=inherit;overflow=hidden;fillColor=none;top=0;left=0;bottom=0;right=0;pointerEvents=1;fontSize=16;" parent="vRbigi4PN9UObd-Hf8e8-83" vertex="1">
          <mxGeometry x="41" width="38" height="41" as="geometry">
            <mxRectangle width="38" height="41" as="alternateBounds" />
          </mxGeometry>
        </mxCell>
        <mxCell id="vRbigi4PN9UObd-Hf8e8-86" value="" style="shape=partialRectangle;html=1;whiteSpace=wrap;connectable=0;strokeColor=inherit;overflow=hidden;fillColor=none;top=0;left=0;bottom=0;right=0;pointerEvents=1;fontSize=16;" parent="vRbigi4PN9UObd-Hf8e8-83" vertex="1">
          <mxGeometry x="79" width="41" height="41" as="geometry">
            <mxRectangle width="41" height="41" as="alternateBounds" />
          </mxGeometry>
        </mxCell>
        <mxCell id="vRbigi4PN9UObd-Hf8e8-114" value="" style="whiteSpace=wrap;html=1;aspect=fixed;fillColor=#dae8fc;strokeColor=#6c8ebf;" parent="1" vertex="1">
          <mxGeometry x="560" y="200" width="40" height="40" as="geometry" />
        </mxCell>
        <mxCell id="vRbigi4PN9UObd-Hf8e8-115" value="" style="whiteSpace=wrap;html=1;aspect=fixed;fillColor=#dae8fc;strokeColor=#6c8ebf;" parent="1" vertex="1">
          <mxGeometry x="560" y="240" width="40" height="40" as="geometry" />
        </mxCell>
        <mxCell id="vRbigi4PN9UObd-Hf8e8-116" value="" style="whiteSpace=wrap;html=1;aspect=fixed;fillColor=#dae8fc;strokeColor=#6c8ebf;" parent="1" vertex="1">
          <mxGeometry x="560" y="280" width="40" height="40" as="geometry" />
        </mxCell>
        <mxCell id="vRbigi4PN9UObd-Hf8e8-117" value="" style="whiteSpace=wrap;html=1;aspect=fixed;fillColor=#dae8fc;strokeColor=#6c8ebf;" parent="1" vertex="1">
          <mxGeometry x="600" y="200" width="40" height="40" as="geometry" />
        </mxCell>
        <mxCell id="vRbigi4PN9UObd-Hf8e8-118" value="" style="whiteSpace=wrap;html=1;aspect=fixed;fillColor=#dae8fc;strokeColor=#6c8ebf;" parent="1" vertex="1">
          <mxGeometry x="600" y="240" width="40" height="40" as="geometry" />
        </mxCell>
        <mxCell id="vRbigi4PN9UObd-Hf8e8-119" value="" style="whiteSpace=wrap;html=1;aspect=fixed;fillColor=#dae8fc;strokeColor=#6c8ebf;" parent="1" vertex="1">
          <mxGeometry x="600" y="280" width="40" height="40" as="geometry" />
        </mxCell>
        <mxCell id="vRbigi4PN9UObd-Hf8e8-120" value="" style="whiteSpace=wrap;html=1;aspect=fixed;fillColor=#dae8fc;strokeColor=#6c8ebf;" parent="1" vertex="1">
          <mxGeometry x="560" y="320" width="40" height="40" as="geometry" />
        </mxCell>
        <mxCell id="vRbigi4PN9UObd-Hf8e8-121" value="" style="whiteSpace=wrap;html=1;aspect=fixed;fillColor=#dae8fc;strokeColor=#6c8ebf;" parent="1" vertex="1">
          <mxGeometry x="560" y="360" width="40" height="40" as="geometry" />
        </mxCell>
        <mxCell id="vRbigi4PN9UObd-Hf8e8-122" value="" style="whiteSpace=wrap;html=1;aspect=fixed;fillColor=#dae8fc;strokeColor=#6c8ebf;" parent="1" vertex="1">
          <mxGeometry x="560" y="400" width="40" height="40" as="geometry" />
        </mxCell>
        <mxCell id="vRbigi4PN9UObd-Hf8e8-123" value="" style="whiteSpace=wrap;html=1;aspect=fixed;fillColor=#dae8fc;strokeColor=#6c8ebf;" parent="1" vertex="1">
          <mxGeometry x="600" y="320" width="40" height="40" as="geometry" />
        </mxCell>
        <mxCell id="vRbigi4PN9UObd-Hf8e8-124" value="" style="whiteSpace=wrap;html=1;aspect=fixed;fillColor=#dae8fc;strokeColor=#6c8ebf;" parent="1" vertex="1">
          <mxGeometry x="600" y="360" width="40" height="40" as="geometry" />
        </mxCell>
        <mxCell id="vRbigi4PN9UObd-Hf8e8-125" value="" style="whiteSpace=wrap;html=1;aspect=fixed;fillColor=#dae8fc;strokeColor=#6c8ebf;" parent="1" vertex="1">
          <mxGeometry x="600" y="400" width="40" height="40" as="geometry" />
        </mxCell>
        <mxCell id="vRbigi4PN9UObd-Hf8e8-126" value="" style="whiteSpace=wrap;html=1;aspect=fixed;fillColor=#dae8fc;strokeColor=#6c8ebf;" parent="1" vertex="1">
          <mxGeometry x="680" y="200" width="40" height="40" as="geometry" />
        </mxCell>
        <mxCell id="vRbigi4PN9UObd-Hf8e8-127" value="" style="whiteSpace=wrap;html=1;aspect=fixed;fillColor=#dae8fc;strokeColor=#6c8ebf;" parent="1" vertex="1">
          <mxGeometry x="680" y="240" width="40" height="40" as="geometry" />
        </mxCell>
        <mxCell id="vRbigi4PN9UObd-Hf8e8-129" value="" style="whiteSpace=wrap;html=1;aspect=fixed;fillColor=#dae8fc;strokeColor=#6c8ebf;" parent="1" vertex="1">
          <mxGeometry x="720" y="200" width="40" height="40" as="geometry" />
        </mxCell>
        <mxCell id="vRbigi4PN9UObd-Hf8e8-130" value="" style="whiteSpace=wrap;html=1;aspect=fixed;fillColor=#dae8fc;strokeColor=#6c8ebf;" parent="1" vertex="1">
          <mxGeometry x="720" y="240" width="40" height="40" as="geometry" />
        </mxCell>
        <mxCell id="vRbigi4PN9UObd-Hf8e8-132" value="" style="whiteSpace=wrap;html=1;aspect=fixed;fillColor=#dae8fc;strokeColor=#6c8ebf;" parent="1" vertex="1">
          <mxGeometry x="760" y="200" width="40" height="40" as="geometry" />
        </mxCell>
        <mxCell id="vRbigi4PN9UObd-Hf8e8-133" value="" style="whiteSpace=wrap;html=1;aspect=fixed;fillColor=#dae8fc;strokeColor=#6c8ebf;" parent="1" vertex="1">
          <mxGeometry x="760" y="240" width="40" height="40" as="geometry" />
        </mxCell>
        <mxCell id="vRbigi4PN9UObd-Hf8e8-134" value="" style="whiteSpace=wrap;html=1;aspect=fixed;fillColor=#dae8fc;strokeColor=#6c8ebf;" parent="1" vertex="1">
          <mxGeometry x="800" y="200" width="40" height="40" as="geometry" />
        </mxCell>
        <mxCell id="vRbigi4PN9UObd-Hf8e8-135" value="" style="whiteSpace=wrap;html=1;aspect=fixed;fillColor=#dae8fc;strokeColor=#6c8ebf;" parent="1" vertex="1">
          <mxGeometry x="800" y="240" width="40" height="40" as="geometry" />
        </mxCell>
        <mxCell id="vRbigi4PN9UObd-Hf8e8-136" value="" style="whiteSpace=wrap;html=1;aspect=fixed;fillColor=#dae8fc;strokeColor=#6c8ebf;" parent="1" vertex="1">
          <mxGeometry x="840" y="200" width="40" height="40" as="geometry" />
        </mxCell>
        <mxCell id="vRbigi4PN9UObd-Hf8e8-137" value="" style="whiteSpace=wrap;html=1;aspect=fixed;fillColor=#dae8fc;strokeColor=#6c8ebf;" parent="1" vertex="1">
          <mxGeometry x="840" y="240" width="40" height="40" as="geometry" />
        </mxCell>
        <mxCell id="vRbigi4PN9UObd-Hf8e8-138" value="" style="whiteSpace=wrap;html=1;aspect=fixed;fillColor=#dae8fc;strokeColor=#6c8ebf;" parent="1" vertex="1">
          <mxGeometry x="880" y="200" width="40" height="40" as="geometry" />
        </mxCell>
        <mxCell id="vRbigi4PN9UObd-Hf8e8-139" value="" style="whiteSpace=wrap;html=1;aspect=fixed;fillColor=#dae8fc;strokeColor=#6c8ebf;" parent="1" vertex="1">
          <mxGeometry x="880" y="240" width="40" height="40" as="geometry" />
        </mxCell>
        <mxCell id="vRbigi4PN9UObd-Hf8e8-140" value="&lt;font style=&quot;font-size: 24px;&quot;&gt;$$W \in&lt;br&gt;&amp;nbsp;\mathbb{R}^{d \times d}&lt;br&gt;$$&lt;/font&gt;" style="text;html=1;strokeColor=none;fillColor=none;align=center;verticalAlign=middle;whiteSpace=wrap;rounded=0;" parent="1" vertex="1">
          <mxGeometry x="120" y="160" width="250" height="30" as="geometry" />
        </mxCell>
        <mxCell id="vRbigi4PN9UObd-Hf8e8-142" value="&lt;font style=&quot;font-size: 24px;&quot;&gt;$$B = 0 \in&lt;br&gt;&amp;nbsp;\mathbb{R}^{r \times d}&lt;br&gt;$$&lt;/font&gt;" style="text;html=1;strokeColor=none;fillColor=none;align=center;verticalAlign=middle;whiteSpace=wrap;rounded=0;" parent="1" vertex="1">
          <mxGeometry x="770" y="160" width="200" height="30" as="geometry" />
        </mxCell>
        <mxCell id="vRbigi4PN9UObd-Hf8e8-143" value="&lt;span style=&quot;font-size: 24px;&quot;&gt;Pesos preentrenados&lt;/span&gt;" style="text;html=1;strokeColor=none;fillColor=none;align=center;verticalAlign=middle;whiteSpace=wrap;rounded=0;" parent="1" vertex="1">
          <mxGeometry x="120" y="460" width="250" height="30" as="geometry" />
        </mxCell>
        <mxCell id="vRbigi4PN9UObd-Hf8e8-144" value="&lt;span style=&quot;font-size: 24px;&quot;&gt;Matrices de LoRA&lt;/span&gt;" style="text;html=1;strokeColor=none;fillColor=none;align=center;verticalAlign=middle;whiteSpace=wrap;rounded=0;" parent="1" vertex="1">
          <mxGeometry x="590" y="460" width="250" height="30" as="geometry" />
        </mxCell>
        <mxCell id="vRbigi4PN9UObd-Hf8e8-148" value="&lt;span style=&quot;font-size: 24px;&quot;&gt;$$A = \mathcal{N}(0,\sigma^2) \in \mathbb{R}^{d \times d}$$&lt;/span&gt;" style="text;html=1;strokeColor=none;fillColor=none;align=center;verticalAlign=middle;whiteSpace=wrap;rounded=0;" parent="1" vertex="1">
          <mxGeometry x="440" y="160" width="300" height="30" as="geometry" />
        </mxCell>
        <mxCell id="vRbigi4PN9UObd-Hf8e8-155" value="" style="group" parent="1" vertex="1" connectable="0">
          <mxGeometry x="320" y="640" width="240" height="40" as="geometry" />
        </mxCell>
        <mxCell id="vRbigi4PN9UObd-Hf8e8-149" value="" style="whiteSpace=wrap;html=1;aspect=fixed;fillColor=#fff2cc;strokeColor=#d6b656;" parent="vRbigi4PN9UObd-Hf8e8-155" vertex="1">
          <mxGeometry width="40" height="40" as="geometry" />
        </mxCell>
        <mxCell id="vRbigi4PN9UObd-Hf8e8-150" value="" style="whiteSpace=wrap;html=1;aspect=fixed;fillColor=#fff2cc;strokeColor=#d6b656;" parent="vRbigi4PN9UObd-Hf8e8-155" vertex="1">
          <mxGeometry x="40" width="40" height="40" as="geometry" />
        </mxCell>
        <mxCell id="vRbigi4PN9UObd-Hf8e8-151" value="" style="whiteSpace=wrap;html=1;aspect=fixed;fillColor=#fff2cc;strokeColor=#d6b656;" parent="vRbigi4PN9UObd-Hf8e8-155" vertex="1">
          <mxGeometry x="80" width="40" height="40" as="geometry" />
        </mxCell>
        <mxCell id="vRbigi4PN9UObd-Hf8e8-152" value="" style="whiteSpace=wrap;html=1;aspect=fixed;fillColor=#fff2cc;strokeColor=#d6b656;" parent="vRbigi4PN9UObd-Hf8e8-155" vertex="1">
          <mxGeometry x="120" width="40" height="40" as="geometry" />
        </mxCell>
        <mxCell id="vRbigi4PN9UObd-Hf8e8-153" value="" style="whiteSpace=wrap;html=1;aspect=fixed;fillColor=#fff2cc;strokeColor=#d6b656;" parent="vRbigi4PN9UObd-Hf8e8-155" vertex="1">
          <mxGeometry x="160" width="40" height="40" as="geometry" />
        </mxCell>
        <mxCell id="vRbigi4PN9UObd-Hf8e8-154" value="" style="whiteSpace=wrap;html=1;aspect=fixed;fillColor=#fff2cc;strokeColor=#d6b656;" parent="vRbigi4PN9UObd-Hf8e8-155" vertex="1">
          <mxGeometry x="200" width="40" height="40" as="geometry" />
        </mxCell>
        <mxCell id="vRbigi4PN9UObd-Hf8e8-156" value="" style="endArrow=block;html=1;rounded=1;strokeWidth=5;endFill=1;curved=0;" parent="1" edge="1">
          <mxGeometry width="50" height="50" relative="1" as="geometry">
            <mxPoint x="360" y="600" as="sourcePoint" />
            <mxPoint x="240" y="520" as="targetPoint" />
          </mxGeometry>
        </mxCell>
        <mxCell id="vRbigi4PN9UObd-Hf8e8-158" value="" style="endArrow=block;html=1;rounded=1;strokeWidth=5;endFill=1;curved=0;" parent="1" edge="1">
          <mxGeometry width="50" height="50" relative="1" as="geometry">
            <mxPoint x="520" y="600" as="sourcePoint" />
            <mxPoint x="640" y="520" as="targetPoint" />
          </mxGeometry>
        </mxCell>
        <mxCell id="vRbigi4PN9UObd-Hf8e8-159" value="" style="group" parent="1" vertex="1" connectable="0">
          <mxGeometry x="320" y="-100" width="240" height="40" as="geometry" />
        </mxCell>
        <mxCell id="vRbigi4PN9UObd-Hf8e8-160" value="" style="whiteSpace=wrap;html=1;aspect=fixed;fillColor=#fff2cc;strokeColor=#d6b656;" parent="vRbigi4PN9UObd-Hf8e8-159" vertex="1">
          <mxGeometry width="40" height="40" as="geometry" />
        </mxCell>
        <mxCell id="vRbigi4PN9UObd-Hf8e8-161" value="" style="whiteSpace=wrap;html=1;aspect=fixed;fillColor=#fff2cc;strokeColor=#d6b656;" parent="vRbigi4PN9UObd-Hf8e8-159" vertex="1">
          <mxGeometry x="40" width="40" height="40" as="geometry" />
        </mxCell>
        <mxCell id="vRbigi4PN9UObd-Hf8e8-162" value="" style="whiteSpace=wrap;html=1;aspect=fixed;fillColor=#fff2cc;strokeColor=#d6b656;" parent="vRbigi4PN9UObd-Hf8e8-159" vertex="1">
          <mxGeometry x="80" width="40" height="40" as="geometry" />
        </mxCell>
        <mxCell id="vRbigi4PN9UObd-Hf8e8-163" value="" style="whiteSpace=wrap;html=1;aspect=fixed;fillColor=#fff2cc;strokeColor=#d6b656;" parent="vRbigi4PN9UObd-Hf8e8-159" vertex="1">
          <mxGeometry x="120" width="40" height="40" as="geometry" />
        </mxCell>
        <mxCell id="vRbigi4PN9UObd-Hf8e8-164" value="" style="whiteSpace=wrap;html=1;aspect=fixed;fillColor=#fff2cc;strokeColor=#d6b656;" parent="vRbigi4PN9UObd-Hf8e8-159" vertex="1">
          <mxGeometry x="160" width="40" height="40" as="geometry" />
        </mxCell>
        <mxCell id="vRbigi4PN9UObd-Hf8e8-165" value="" style="whiteSpace=wrap;html=1;aspect=fixed;fillColor=#fff2cc;strokeColor=#d6b656;" parent="vRbigi4PN9UObd-Hf8e8-159" vertex="1">
          <mxGeometry x="200" width="40" height="40" as="geometry" />
        </mxCell>
        <mxCell id="vRbigi4PN9UObd-Hf8e8-166" value="" style="endArrow=block;html=1;rounded=1;strokeWidth=5;endFill=1;curved=0;" parent="1" edge="1">
          <mxGeometry width="50" height="50" relative="1" as="geometry">
            <mxPoint x="240" y="120" as="sourcePoint" />
            <mxPoint x="400" y="40" as="targetPoint" />
            <Array as="points">
              <mxPoint x="240" y="40" />
            </Array>
          </mxGeometry>
        </mxCell>
        <mxCell id="vRbigi4PN9UObd-Hf8e8-167" value="&lt;font style=&quot;font-size: 50px;&quot;&gt;+&lt;/font&gt;" style="text;html=1;strokeColor=none;fillColor=none;align=center;verticalAlign=middle;whiteSpace=wrap;rounded=0;" parent="1" vertex="1">
          <mxGeometry x="410" y="20" width="60" height="30" as="geometry" />
        </mxCell>
        <mxCell id="vRbigi4PN9UObd-Hf8e8-168" value="" style="endArrow=block;html=1;rounded=1;strokeWidth=5;endFill=1;curved=0;" parent="1" edge="1">
          <mxGeometry width="50" height="50" relative="1" as="geometry">
            <mxPoint x="640" y="120" as="sourcePoint" />
            <mxPoint x="480" y="40" as="targetPoint" />
            <Array as="points">
              <mxPoint x="640" y="40" />
            </Array>
          </mxGeometry>
        </mxCell>
        <mxCell id="vRbigi4PN9UObd-Hf8e8-170" value="&lt;font style=&quot;font-size: 50px;&quot;&gt;+&lt;/font&gt;" style="text;html=1;strokeColor=none;fillColor=none;align=center;verticalAlign=middle;whiteSpace=wrap;rounded=0;rotation=-45;" parent="1" vertex="1">
          <mxGeometry x="627" y="223" width="60" height="30" as="geometry" />
        </mxCell>
      </root>
    </mxGraphModel>
  </diagram>
</mxfile>
